<svg width="115" height="76" viewBox="0 0 115 76" fill="none" xmlns="http://www.w3.org/2000/svg">
<path fill-rule="evenodd" clip-rule="evenodd" d="M66.0146 0.451605C66.0146 5.19622 62.1683 9.04249 57.4237 9.04249C52.6791 9.04249 48.8328 5.19622 48.8328 0.451605C48.8328 0.300122 48.8367 0.149555 48.8445 0L0 0L0 75.9615H48.8517C49.0872 71.4274 52.8382 67.8235 57.4309 67.8235C62.0236 67.8235 65.7746 71.4274 66.01 75.9615H114.847V0L66.0029 0C66.0107 0.149555 66.0146 0.300122 66.0146 0.451605Z" fill="#d898d8"/>
<rect x="32.5605" y="36.1738" width="37.0764" height="4.52152" fill="black"/>
<rect x="60.1445" y="18.9902" width="26.2248" height="4.52152" transform="rotate(30 60.1445 18.9902)" fill="black"/>
<rect width="26.2248" height="4.52152" transform="matrix(-0.866025 0.5 0.5 0.866025 80.5957 39.79)" fill="black"/>
</svg>
