<svg width="179" height="179" viewBox="0 0 179 179" fill="none" xmlns="http://www.w3.org/2000/svg">
<g clip-path="url(#clip0_237_6057)">
<path d="M38.9308 70.5304C38.4365 71.6099 37.7421 72.3316 36.8444 72.6837C35.9468 73.0358 34.9376 72.9625 33.8233 72.4527L32.9169 72.0382L33.6144 70.5122L34.5208 70.9267C35.1444 71.2126 35.7234 71.2749 36.2558 71.1174C36.7881 70.9599 37.2026 70.5514 37.5007 69.8976C37.7917 69.2646 37.8105 68.7166 37.565 68.2485C37.3173 67.784 36.8798 67.4078 36.2562 67.122L29.9901 64.2559L29.1205 66.1572L27.7309 65.523L29.8437 60.8927L31.2333 61.5269L30.6838 62.7278L36.95 65.5939C38.085 66.1107 38.8218 66.7933 39.1603 67.6415C39.5011 68.486 39.4213 69.4488 38.927 70.5283L38.9308 70.5304Z" fill="#88b2c4"/>
<path d="M45.2328 59.7438C44.6794 60.4875 44.0686 61.0299 43.4004 61.3711C42.7323 61.7123 42.0286 61.8401 41.2899 61.745C40.5513 61.6498 39.8107 61.3261 39.0682 60.7738L32.6945 56.0406L33.6949 54.6945L40.094 59.4523C40.8201 59.9901 41.5227 60.2079 42.1965 60.0974C42.8703 59.987 43.4775 59.5711 44.0165 58.8437C44.5533 58.1201 44.7791 57.4197 44.6939 56.7425C44.6051 56.0631 44.1965 55.4564 43.4726 54.9148L37.0735 50.1571L38.0739 48.8109L44.4453 53.5478C45.1916 54.1023 45.713 54.7198 46.0116 55.3966C46.314 56.0756 46.3953 56.7852 46.2615 57.5239C46.1276 58.2626 45.7803 59.0016 45.2269 59.7453L45.2328 59.7438Z" fill="#88b2c4"/>
<path d="M53.457 50.9028C52.7822 51.4874 52.0819 51.8843 51.3503 52.0948C50.6186 52.3054 49.8994 52.3055 49.1962 52.0974C48.4931 51.8892 47.8407 51.4384 47.237 50.7487L46.9649 50.4382L48.2232 49.3498L48.4953 49.6603C49.0969 50.3537 49.7485 50.6854 50.4513 50.6709C51.1541 50.6563 51.8333 50.3561 52.4916 49.7916C53.1562 49.216 53.535 48.6286 53.6317 48.0316C53.7283 47.4347 53.5783 46.9129 53.1873 46.4646C52.9242 46.1643 52.6309 45.9851 52.3031 45.9343C51.9753 45.8835 51.619 45.9251 51.2225 46.0621C50.8259 46.1991 50.3856 46.3949 49.8992 46.6531L49.2283 47.0075C48.5463 47.3556 47.9104 47.6065 47.3184 47.7642C46.7264 47.9219 46.1738 47.9342 45.6561 47.8084C45.1385 47.6826 44.6482 47.355 44.1888 46.8277C43.7384 46.3105 43.4772 45.7493 43.4051 45.1439C43.3331 44.5386 43.4436 43.9348 43.7314 43.3245C44.023 42.7165 44.4779 42.1434 45.0961 41.6052C45.7143 41.0671 46.3671 40.6923 47.0487 40.4825C47.7303 40.2727 48.3932 40.2499 49.0427 40.4222C49.6922 40.5944 50.2899 40.9939 50.8373 41.6264L51.2659 42.1211L50.0113 43.2117L49.5827 42.717C49.2225 42.3013 48.8453 42.044 48.457 41.9434C48.0687 41.8429 47.6656 41.8623 47.2611 42.0046C46.8528 42.1447 46.456 42.3854 46.0689 42.7208C45.5014 43.214 45.1559 43.7266 45.0366 44.2511C44.921 44.7778 45.0541 45.2602 45.4339 45.702C45.6896 45.998 45.9696 46.1745 46.2718 46.2352C46.5777 46.2981 46.9121 46.2687 47.2804 46.1549C47.6486 46.0411 48.0671 45.8574 48.53 45.6055L49.2115 45.267C49.8792 44.9009 50.5221 44.6292 51.1366 44.4498C51.7547 44.2726 52.3335 44.2408 52.8826 44.3551C53.4295 44.4731 53.939 44.8018 54.4148 45.3436C54.8795 45.8789 55.1545 46.4679 55.236 47.1084C55.3176 47.7489 55.2122 48.3953 54.9141 49.049C54.6161 49.7028 54.1318 50.3182 53.4591 50.8991L53.457 50.9028Z" fill="#88b2c4"/>
<path d="M62.8652 44.0655L61.4049 44.8939L56.1903 35.7908L52.9252 37.6491L52.1665 36.3259L60.1534 31.7787L60.9121 33.1019L57.6469 34.9603L62.8615 44.0634L62.8652 44.0655Z" fill="#88b2c4"/>
<path d="M77.9879 38.6535C77.1387 38.8358 76.3396 38.8195 75.595 38.5973C74.8503 38.3751 74.2133 37.9578 73.6866 37.3323C73.1578 36.7105 72.783 35.8908 72.5621 34.8731L71.9623 32.1235C71.6253 30.5937 71.788 29.3327 72.4444 28.3418C73.1008 27.351 74.1388 26.7041 75.5608 26.3976C76.971 26.0941 78.1295 26.2438 79.0401 26.8486C79.9507 27.4535 80.545 28.3999 80.8252 29.6842L80.8404 29.7524L79.1985 30.105L79.1728 29.9863C79.0626 29.4727 78.8654 29.0325 78.5871 28.6641C78.3088 28.2957 77.9412 28.0389 77.4865 27.8901C77.0317 27.7413 76.4994 27.7356 75.884 27.865C74.9549 28.0654 74.2886 28.5065 73.8828 29.1921C73.4771 29.8777 73.3813 30.7223 73.6012 31.7246L74.2183 34.5387C74.4366 35.5351 74.8746 36.2627 75.5317 36.731C76.1887 37.1994 76.9869 37.3289 77.9278 37.1254C78.8569 36.925 79.4827 36.5198 79.8035 35.9039C80.1244 35.288 80.1959 34.5628 80.0143 33.7261L79.9598 33.477L76.6407 34.1916L76.3285 32.7651L81.2777 31.701L82.5261 37.4164L81.0009 37.7474L80.7343 36.5253L80.485 36.5792C80.4352 36.8373 80.3294 37.0977 80.1636 37.3678C79.9977 37.638 79.7504 37.8859 79.4121 38.1109C79.0739 38.336 78.6037 38.5146 78.0001 38.6408L77.9879 38.6535Z" fill="#88b2c4"/>
<path d="M87.7828 37.1085L86.1005 37.1015L86.12 25.1009L91.0823 25.1224C91.8399 25.1246 92.4975 25.257 93.0573 25.5159C93.6171 25.7748 94.0567 26.1473 94.3783 26.6297C94.6962 27.11 94.8568 27.6824 94.8563 28.3447L94.8568 28.5329C94.8565 29.2894 94.673 29.8906 94.3058 30.3462C93.9386 30.8018 93.4952 31.1145 92.9815 31.2828L92.9806 31.5592C93.4049 31.5717 93.7483 31.7156 94.0094 31.985C94.2705 32.2544 94.4034 32.6427 94.4029 33.1419L94.3987 37.1352L92.7164 37.1282L92.7209 33.3577C92.7225 33.0371 92.6354 32.7841 92.4635 32.6008C92.2916 32.4175 92.022 32.3261 91.6568 32.3229L87.7922 32.3072L87.7828 37.1085ZM87.7991 26.6341L87.7945 30.7656L90.9014 30.7791C91.609 30.7821 92.1616 30.6067 92.5594 30.2528C92.955 29.9026 93.153 29.4136 93.1565 28.7975L93.157 28.6593C93.1574 28.0315 92.9651 27.5397 92.5862 27.1824C92.2013 26.8267 91.6445 26.6486 90.9119 26.646L87.8049 26.6325L87.7991 26.6341Z" fill="#88b2c4"/>
<path d="M105.492 39.1484L98.0607 37.5876L100.505 25.8449L107.853 27.3871L107.542 28.8791L101.845 27.6818L101.098 31.2705L106.326 32.37L106.01 33.879L100.782 32.7795L100.021 36.4346L105.801 37.6505L105.491 39.1425L105.492 39.1484Z" fill="#88b2c4"/>
<path d="M109.291 40.4466L107.686 39.7474L115.704 30.1544L118.429 31.3369L116.906 43.7504L115.301 43.0512L115.688 40.0452L111.227 38.1075L109.297 40.445L109.291 40.4466ZM116.529 31.6545L112.215 36.8586L115.919 38.4677L116.768 31.7574L116.529 31.6545Z" fill="#88b2c4"/>
<path d="M122.117 47.2239L120.721 46.2841L126.57 37.6047L123.447 35.5051L124.3 34.2422L131.94 39.385L131.087 40.6479L127.964 38.5483L122.115 47.2276L122.117 47.2239Z" fill="#88b2c4"/>
<path d="M133.755 57.9934L131.967 55.6011L140.496 46.9706L141.503 48.3187L133.693 56.0485L133.846 56.2556L143.771 51.3586L145.559 53.7509L138.018 61.8389L138.171 62.0461L147.83 56.7929L148.837 58.141L138.11 63.826L136.322 61.4337L143.95 53.2569L143.796 53.0497L133.752 57.9913L133.755 57.9934Z" fill="#88b2c4"/>
<path d="M141.788 72.1208C141.231 70.7658 141.175 69.5317 141.617 68.4221C142.055 67.3104 143.002 66.4621 144.454 65.8713L147.058 64.8134C148.51 64.2227 149.785 64.172 150.877 64.6594C151.973 65.1489 152.796 66.069 153.353 67.424C153.901 68.7689 153.961 69.9956 153.517 71.1089C153.078 72.2206 152.13 73.0726 150.68 73.6597L148.076 74.7175C146.623 75.3083 145.349 75.359 144.257 74.8716C143.161 74.3821 142.339 73.4679 141.786 72.1245L141.788 72.1208ZM143.187 71.5537C143.555 72.4536 144.112 73.0426 144.859 73.3303C145.604 73.612 146.451 73.5621 147.391 73.18L150.092 72.0839C151.038 71.7002 151.674 71.1478 152.007 70.4251C152.34 69.7025 152.322 68.8911 151.954 67.9912C151.586 67.0912 151.027 66.4963 150.28 66.2087C149.53 65.919 148.685 65.9651 147.743 66.351L145.042 67.4471C144.096 67.8308 143.463 68.3854 143.128 69.1117C142.797 69.8402 142.815 70.6515 143.183 71.5515L143.187 71.5537Z" fill="#88b2c4"/>
<path d="M144.976 81.3837L144.686 79.7283L156.528 77.7133L157.374 82.5977C157.505 83.341 157.491 84.0102 157.331 84.6052C157.171 85.2002 156.884 85.6972 156.466 86.0941C156.048 86.4909 155.51 86.744 154.856 86.8556L154.669 86.8865C153.927 87.0119 153.297 86.935 152.781 86.6519C152.265 86.3688 151.88 85.988 151.625 85.5098L151.355 85.5566C151.415 85.9769 151.336 86.3369 151.116 86.6402C150.897 86.9435 150.537 87.1366 150.042 87.2214L146.098 87.8921L145.809 86.2366L149.533 85.6025C149.848 85.5469 150.084 85.4212 150.235 85.2211C150.385 85.021 150.432 84.7417 150.367 84.3825L149.709 80.581L144.973 81.3874L144.976 81.3837ZM155.312 79.6222L151.237 80.3154L151.766 83.3757C151.889 84.0744 152.156 84.5899 152.574 84.915C152.989 85.2438 153.504 85.3578 154.113 85.255L154.251 85.2308C154.873 85.1249 155.322 84.8547 155.609 84.4173C155.892 83.9777 155.973 83.4008 155.848 82.6809L155.318 79.6206L155.312 79.6222Z" fill="#88b2c4"/>
<path d="M146.262 93.2437L146.329 91.5658L158.338 92.0609L158.272 93.7388L153.177 93.5267L153.167 93.7834L158.08 98.7017L157.995 100.928L152.293 95.0835L145.977 100.62L146.066 98.3426L151.454 93.7093L151.464 93.4526L146.267 93.2362L146.262 93.2437Z" fill="#88b2c4"/>
<path d="M59.1538 146.736C34.6285 132.576 22.7692 103.703 30.3163 76.5252L32.3844 77.1011C25.0984 103.337 36.5495 131.208 60.2266 144.878C88.8251 161.389 125.483 151.622 141.944 123.111C145.974 116.131 148.511 108.566 149.488 100.629L151.62 100.896C150.608 109.119 147.979 116.953 143.804 124.185C126.75 153.723 88.7774 163.834 59.1559 146.732L59.1538 146.736Z" fill="#88b2c4"/>
<path fill-rule="evenodd" clip-rule="evenodd" d="M109.346 103.538L116.196 101.703L108.199 71.8571L101.349 73.6925L99.6451 67.332L69.7997 75.3291L71.504 81.6896L101.349 73.6925L109.346 103.538ZM88.2949 97.0721L96.2824 126.882L102.643 125.177L94.6459 95.3321L88.2999 97.0325L86.4741 90.2184L56.6287 98.2155L58.4641 105.065L88.2949 97.0721Z" fill="#88b2c4"/>
</g>
<defs>
<clipPath id="clip0_237_6057">
<rect width="131" height="130" fill="white" transform="translate(65) rotate(30)"/>
</clipPath>
</defs>
</svg>
