<svg xmlns:xlink="http://www.w3.org/1999/xlink" xmlns="http://www.w3.org/2000/svg" width="442" height="445" viewBox="0 0 442 445" fill="none"><g clip-path="url(#clip0)"><mask id="path-1-inside-1" fill="white"><path d="M42.5 164.6C42.2 164 42 163.5 41.7 163C36.4 154.5 30.7 146.3 23.6 139.1C22.5 138 21.4 136.7 20.5 135.4C17.9 131.6 19 127.5 23.3 125.8C25.4 125 27.6 124.5 29.8 124.4C39.4 123.8 49 124.2 58.5 125.6C59.4 125.7 60.2 125.8 61.4 125.9C61.1 125 60.9 124.4 60.7 123.7C58.3 117.7 55.2 112 52 106.3C49.3 101.6 46.9 96.9 44.4 92.2C43.8 91.1 43.3 89.9 43 88.6C41.9 84.4 44.4 81 48.8 80.9C50.1 80.9 51.5 81.1 52.8 81.3C61.2 82.5 69.3 85.2 77.4 87.6C82.3 89 87.2 90.4 92.4 91.8C92.4 90.9 92.5 90.4 92.4 89.9C90.3 78 88.4 66.1 85.5 54.4C85.3 53.5 85.1 52.5 85 51.6C84.8 47.3 88.2 44.2 92.4 45.1C94.1 45.5 95.9 46.3 97.4 47.3C100.3 49.3 103 51.6 105.7 53.9C109.5 57.2 113.3 60.5 117 63.9C120.7 67.2 125.2 69.1 129.6 72C129.6 71 129.6 70.4 129.6 69.8C129.3 62.6 128.9 55.4 128.8 48.2C128.7 39.8 128.7 31.4 128.8 23C128.8 21.8 128.9 20.6 129.2 19.4C130 16 133.1 14.8 136.1 16.6C137.1 17.2 138 18 138.9 18.8C149.5 27.5 159 37.3 168.8 46.9C169.3 47.4 169.8 47.9 170.4 48.4C170.5 48.5 170.7 48.5 171 48.6C171.5 46.7 172 44.8 172.4 42.8C174.7 31.4 177 20.1 179.3 8.7C179.5 7.5 179.8 6.3 180.2 5.2C181.7 1 185.8 0.200004 188.6 3.6C190.4 5.7 191.7 8.3 193.1 10.6C197.5 17.7 201.8 24.8 206.2 31.8C207.7 34.2 209.5 36.3 211.2 38.6C211.7 39.3 212.4 39.9 213.2 40.8C213.6 39.8 214 39 214.3 38.2C216.8 31 219.3 23.7 221.9 16.5C223.3 12.8 225 9.1 226.7 5.5C227.2 4.3 227.9 3.2 228.7 2.3C231.5 -1.2 235.9 -1.1 238.4 2.7C239.4 4.1 240.1 5.8 240.7 7.4C242.4 12.3 243.8 17.3 245.4 22.2C248.1 30.4 250.8 38.6 253.6 46.8C253.9 47.7 254.3 48.5 254.7 49.8C255.8 48.1 256.7 46.8 257.5 45.4C261.2 38.9 264.7 32.4 268.5 26C271.1 21.6 273.9 17.3 276.7 13.1C277.7 11.6 279 10.2 280.3 9C284.5 5.3 289.8 6.7 291.1 12.1C292.1 16.2 292.4 20.5 292.8 24.7C293.5 33.1 294 41.6 294.8 50.1C295.2 54.4 296 58.6 297.3 63.2C298.3 62.6 299.1 62.2 299.8 61.6C305.2 57 310.7 52.5 316 47.7C321.6 42.6 327 37.2 333.4 33C334.7 32.1 336.1 31.2 337.5 30.6C342.5 28.4 346.9 30.8 347.4 36.3C347.7 39.5 347.4 42.9 346.8 46.1C345.2 54.5 343.4 62.9 341.6 71.2C341 74.1 340.4 77 340.2 80.4C341.5 79.8 342.5 79.4 343.5 79C350.9 75.5 358.2 72 365.6 68.6C369.3 66.9 373.1 65.5 376.9 64C378.2 63.5 379.5 63.2 380.8 63.1C385.2 62.7 388.1 65.4 387.8 69.8C387.7 71.3 387.4 72.8 386.9 74.2C385.6 78.2 384.1 82.2 382.6 86.2C379 95.9 375.3 105.5 371.6 115.1C371.4 115.7 371.2 116.3 371 117C373.2 117.4 375.3 117 377.3 116.5C382.4 115.3 387.4 114 392.4 112.8C399.6 111.1 406.7 109.5 413.9 107.9C414.7 107.7 415.7 107.6 416.5 107.7C419.4 107.9 421.4 110.1 421.2 113C421.1 114.3 420.7 115.7 420.1 116.9C418.9 119.1 417.6 121.2 416.2 123.2C411.5 129.7 406.6 136 401.9 142.5C399.3 146.1 397 149.8 394.4 153.8C395.5 154.3 396.2 154.7 397 155C401.2 156.5 405.5 157.2 409.9 157.6C414.4 158 419 158.3 423.5 158.5C426.3 158.6 429.1 158.3 431.9 158.2C433 158.2 434.1 158 435.2 158.1C439.1 158.4 441.2 161.9 439.8 165.5C439.4 166.6 438.7 167.6 437.9 168.5C431 176.4 424 184.2 416.2 191.2C414.7 192.6 412.9 193.8 411.3 195.1C410.4 195.8 409.6 196.5 408.5 197.4C412.1 199.7 415.4 201.8 418.8 203.9C424.5 207.3 430.5 209.9 436.7 211.9C441.9 213.5 442.9 218.6 438.5 222.1C437.6 222.8 436.8 223.6 435.8 224.1C427.4 229.1 419.2 234.4 409.8 237.2C409.6 237.3 409.4 237.4 409.1 237.6C409.3 237.9 409.5 238.2 409.7 238.4C416.7 244.6 423.8 250.7 430.9 256.8C432.7 258.4 434.7 259.7 436.6 261.1C439.4 263.1 439.6 266.4 437.1 268.7C436.4 269.3 435.6 269.9 434.7 270.3C424.7 274.5 414.8 278.6 404.1 280.8C401.8 281.3 399.5 281.6 397.3 282C396.7 282.1 396.1 282.3 395.4 282.5C395.5 282.8 395.5 283.1 395.6 283.3C400.4 290.2 405.2 297.1 410.1 303.9C411.7 306.2 413.5 308.3 415.2 310.5C415.6 311.1 416.1 311.6 416.5 312.2C418.2 315.1 417.4 318.5 414.3 319.9C412.9 320.6 411.3 321 409.7 321.1C402 321.5 394.2 321.8 386.4 322C384.2 322.1 381.9 321.7 379.7 321.5C379 321.4 378.3 321.4 377.3 321.4C377.6 322.5 377.8 323.3 378 324.1C381.3 334.5 384.6 345 387.9 355.4C389.3 360 387.4 363.3 382.6 363.7C380.4 363.9 378.1 363.7 375.9 363.3C369.8 362 363.7 360.6 357.7 359C354.7 358.2 351.8 356.9 348.9 355.8C348.2 355.5 347.4 355.2 346.5 354.9C346.5 355.6 346.5 356.2 346.5 356.7C346.7 360.5 347 364.4 347.1 368.2C347.4 375.2 347.7 382.3 348.9 389.2C349.1 390.5 349.2 391.9 349.2 393.3C349.1 396.5 346.8 398.5 343.6 398C342.4 397.8 341.3 397.5 340.1 397.1C330.8 394.1 322.1 389.6 313.9 384.2C313.2 383.8 312.6 383.3 311.6 382.7C311.4 383.7 311.2 384.4 311.1 385.1C309.9 395.8 308.8 406.4 307.7 417.1C307.6 418.5 307.4 419.8 307.1 421.1C306.2 424.9 303 426.6 299.4 425.1C298.2 424.6 297 423.9 295.8 423.2C290.6 419.9 286.3 415.7 282.2 411.1C277.1 405.3 271.7 399.7 266.3 393.9C266 394.4 265.8 394.6 265.8 394.8C263.8 404.9 261.9 415 259.9 425.2C259.5 427.3 259.1 429.5 258.7 431.6C258.5 432.5 258.2 433.5 257.7 434.3C256.5 436.4 254.1 437.3 251.9 436.2C250.6 435.6 249.2 434.6 248.4 433.4C246.4 430.6 244.5 427.8 242.9 424.7C239.2 417.7 235.6 410.7 231.7 403.1C231.3 403.7 231 404.3 230.6 404.8C222.1 416 213.6 427.2 207 439.7C206.4 440.7 205.8 441.8 204.9 442.6C202.8 444.8 199.6 445 197.4 442.8C196.3 441.8 195.4 440.5 194.8 439.1C191.1 431.3 187.7 423.4 185.8 414.9C184.8 410.2 183.5 405.6 182.3 401C182.2 400.8 182 400.6 181.8 400.3C181.1 401.3 180.5 402.2 179.8 403.1C175.8 408 171.8 412.9 167.7 417.7C164.1 422 160.3 426.1 156.6 430.3C155.8 431.2 154.9 432.2 153.8 432.9C151.7 434.3 149.3 433.4 148.8 431C148.1 428 147.3 425.1 146 422.4C145.5 421.2 145.5 419.8 145.4 418.4C144.8 408 144.2 397.7 143.5 387.1C143 387.2 142.7 387.1 142.5 387.3C135 391.7 127.4 396 119.9 400.5C116.8 402.4 113.9 404.8 110.9 406.9C109.6 407.8 108.4 408.9 107 409.7C103.8 411.5 100.6 410 99.9 406.4C99.6 404.8 99.6 403.1 99.7 401.4C100.1 392.2 101.1 383.1 102.9 374C103.3 372 103.6 370.1 103.9 368.1C104 367.6 103.9 367 103.9 366.4C99.3 367.7 94.7 368.9 90.2 370.1C85.2 371.4 80.2 372.9 75.4 375C72.8 376.1 70.1 376.8 67.5 377.7C66.9 377.9 66.3 378 65.6 378C61 378.4 58.2 375.6 58.8 371.1C59 369.4 59.4 367.8 59.9 366.2C63.8 353.3 68.6 340.6 74.4 328.4C74.6 328 74.8 327.5 75 327C74.6 327 74.4 326.9 74.2 327C68.7 329.4 62.8 330.7 56.8 331.5C52.2 332.1 47.8 333.4 43.6 335.7C41.6 336.8 39.4 337.7 37.2 338.5C36.1 338.9 34.8 339 33.7 339C31 338.8 29.6 336.6 30.3 334.1C30.7 332.9 31.2 331.7 31.8 330.6C36.9 320.3 42.5 310.4 48.5 300.6C49 299.9 49.4 299.1 50 298C48.9 297.9 48 297.9 47.2 297.8C39.6 297.5 32 296.9 24.6 295.2C23.3 294.9 22 294.5 20.7 294.1C17.4 293.1 14.1 292.2 10.6 292.1C9.59996 292.1 8.49996 291.9 7.49996 291.7C4.69996 290.9 3.39996 288.3 4.69996 285.7C5.19996 284.6 5.99996 283.5 6.79996 282.5C8.99996 280.2 11.3 277.9 13.6 275.8C20.8 269.3 27.9 262.7 34.5 255.6C35 255 35.6 254.4 36.2 253.7C35.3 253.3 34.6 252.9 33.9 252.6C25.7 248.8 17.5 245.1 9.29996 241.2C7.09996 240.2 5.09996 238.9 3.09996 237.6C2.09996 237 1.19996 236.2 0.399958 235.2C-1.30004 233 -1.20004 230 0.899958 228C2.09996 226.8 3.49996 225.9 4.99996 225.1C7.89996 223.6 10.9 222.3 13.9 220.9C23.4 216.4 33 211.8 42.5 207.3C42.8 207.2 43 207 43.3 206.8C43.1 206.6 43 206.4 42.8 206.2C33.4 199.9 23.9 193.6 14.4 187.3C12.1 185.8 9.89996 184.3 7.59996 182.8C7.09996 182.4 6.49996 182.1 5.99996 181.7C4.29996 180.3 3.39996 178.6 3.89996 176.4C4.39996 174.1 5.99996 172.8 8.19996 172.4C11.4 171.7 14.6 171.1 17.8 170.4C25 168.9 32.2 167.3 39.3 165.7C40.9 165.1 41.6 164.8 42.5 164.6Z"></path></mask><path d="M42.5 164.6C42.2 164 42 163.5 41.7 163C36.4 154.5 30.7 146.3 23.6 139.1C22.5 138 21.4 136.7 20.5 135.4C17.9 131.6 19 127.5 23.3 125.8C25.4 125 27.6 124.5 29.8 124.4C39.4 123.8 49 124.2 58.5 125.6C59.4 125.7 60.2 125.8 61.4 125.9C61.1 125 60.9 124.4 60.7 123.7C58.3 117.7 55.2 112 52 106.3C49.3 101.6 46.9 96.9 44.4 92.2C43.8 91.1 43.3 89.9 43 88.6C41.9 84.4 44.4 81 48.8 80.9C50.1 80.9 51.5 81.1 52.8 81.3C61.2 82.5 69.3 85.2 77.4 87.6C82.3 89 87.2 90.4 92.4 91.8C92.4 90.9 92.5 90.4 92.4 89.9C90.3 78 88.4 66.1 85.5 54.4C85.3 53.5 85.1 52.5 85 51.6C84.8 47.3 88.2 44.2 92.4 45.1C94.1 45.5 95.9 46.3 97.4 47.3C100.3 49.3 103 51.6 105.7 53.9C109.5 57.2 113.3 60.5 117 63.9C120.7 67.2 125.2 69.1 129.6 72C129.6 71 129.6 70.4 129.6 69.8C129.3 62.6 128.9 55.4 128.8 48.2C128.7 39.8 128.7 31.4 128.8 23C128.8 21.8 128.9 20.6 129.2 19.4C130 16 133.1 14.8 136.1 16.6C137.1 17.2 138 18 138.9 18.8C149.5 27.5 159 37.3 168.8 46.9C169.3 47.4 169.8 47.9 170.4 48.4C170.5 48.5 170.7 48.5 171 48.6C171.5 46.7 172 44.8 172.4 42.8C174.7 31.4 177 20.1 179.3 8.7C179.5 7.5 179.8 6.3 180.2 5.2C181.7 1 185.8 0.200004 188.6 3.6C190.4 5.7 191.7 8.3 193.1 10.6C197.5 17.7 201.8 24.8 206.2 31.8C207.7 34.2 209.5 36.3 211.2 38.6C211.7 39.3 212.4 39.9 213.2 40.8C213.6 39.8 214 39 214.3 38.2C216.8 31 219.3 23.7 221.9 16.5C223.3 12.8 225 9.1 226.7 5.5C227.2 4.3 227.9 3.2 228.7 2.3C231.5 -1.2 235.9 -1.1 238.4 2.7C239.4 4.1 240.1 5.8 240.7 7.4C242.4 12.3 243.8 17.3 245.4 22.2C248.1 30.4 250.8 38.6 253.6 46.8C253.9 47.7 254.3 48.5 254.7 49.8C255.8 48.1 256.7 46.8 257.5 45.4C261.2 38.9 264.7 32.4 268.5 26C271.1 21.6 273.9 17.3 276.7 13.1C277.7 11.6 279 10.2 280.3 9C284.5 5.3 289.8 6.7 291.1 12.1C292.1 16.2 292.4 20.5 292.8 24.7C293.5 33.1 294 41.6 294.8 50.1C295.2 54.4 296 58.6 297.3 63.2C298.3 62.6 299.1 62.2 299.8 61.6C305.2 57 310.7 52.5 316 47.7C321.6 42.6 327 37.2 333.4 33C334.7 32.1 336.1 31.2 337.5 30.6C342.5 28.4 346.9 30.8 347.4 36.3C347.7 39.5 347.4 42.9 346.8 46.1C345.2 54.5 343.4 62.9 341.6 71.2C341 74.1 340.4 77 340.2 80.4C341.5 79.8 342.5 79.4 343.5 79C350.9 75.5 358.2 72 365.6 68.6C369.3 66.9 373.1 65.5 376.9 64C378.2 63.5 379.5 63.2 380.8 63.1C385.2 62.7 388.1 65.4 387.8 69.8C387.7 71.3 387.4 72.8 386.9 74.2C385.6 78.2 384.1 82.2 382.6 86.2C379 95.9 375.3 105.5 371.6 115.1C371.4 115.7 371.2 116.3 371 117C373.2 117.4 375.3 117 377.3 116.5C382.4 115.3 387.4 114 392.4 112.8C399.6 111.1 406.7 109.5 413.9 107.9C414.7 107.7 415.7 107.6 416.5 107.7C419.4 107.9 421.4 110.1 421.2 113C421.1 114.3 420.7 115.7 420.1 116.9C418.9 119.1 417.6 121.2 416.2 123.2C411.5 129.7 406.6 136 401.9 142.5C399.3 146.1 397 149.8 394.4 153.8C395.5 154.3 396.2 154.7 397 155C401.2 156.5 405.5 157.2 409.9 157.6C414.4 158 419 158.3 423.5 158.5C426.3 158.6 429.1 158.3 431.9 158.2C433 158.2 434.1 158 435.2 158.1C439.1 158.4 441.2 161.9 439.8 165.5C439.4 166.6 438.7 167.6 437.9 168.5C431 176.4 424 184.2 416.2 191.2C414.7 192.6 412.9 193.8 411.3 195.1C410.4 195.8 409.6 196.5 408.5 197.4C412.1 199.7 415.4 201.8 418.8 203.9C424.5 207.3 430.5 209.9 436.7 211.9C441.9 213.5 442.9 218.6 438.5 222.1C437.6 222.8 436.8 223.6 435.8 224.1C427.4 229.1 419.2 234.4 409.8 237.2C409.6 237.3 409.4 237.4 409.1 237.6C409.3 237.9 409.5 238.2 409.7 238.4C416.7 244.6 423.8 250.7 430.9 256.8C432.7 258.4 434.7 259.7 436.6 261.1C439.4 263.1 439.6 266.4 437.1 268.7C436.4 269.3 435.6 269.9 434.7 270.3C424.7 274.5 414.8 278.6 404.1 280.8C401.8 281.3 399.5 281.6 397.3 282C396.7 282.1 396.1 282.3 395.4 282.5C395.5 282.8 395.5 283.1 395.6 283.3C400.4 290.2 405.2 297.1 410.1 303.9C411.7 306.2 413.5 308.3 415.2 310.5C415.6 311.1 416.1 311.6 416.5 312.2C418.2 315.1 417.4 318.5 414.3 319.9C412.9 320.6 411.3 321 409.7 321.1C402 321.5 394.2 321.8 386.4 322C384.2 322.1 381.9 321.7 379.7 321.5C379 321.4 378.3 321.4 377.3 321.4C377.6 322.5 377.8 323.3 378 324.1C381.3 334.5 384.6 345 387.9 355.4C389.3 360 387.4 363.3 382.6 363.7C380.4 363.9 378.1 363.7 375.9 363.3C369.8 362 363.7 360.6 357.7 359C354.7 358.2 351.8 356.9 348.9 355.8C348.2 355.5 347.4 355.2 346.5 354.9C346.5 355.6 346.5 356.2 346.5 356.7C346.7 360.5 347 364.4 347.1 368.2C347.4 375.2 347.7 382.3 348.9 389.2C349.1 390.5 349.2 391.9 349.2 393.3C349.1 396.5 346.8 398.5 343.6 398C342.4 397.8 341.3 397.5 340.1 397.1C330.8 394.1 322.1 389.6 313.9 384.2C313.2 383.8 312.6 383.3 311.6 382.7C311.4 383.7 311.2 384.4 311.1 385.1C309.9 395.8 308.8 406.4 307.7 417.1C307.6 418.5 307.4 419.8 307.1 421.1C306.2 424.9 303 426.6 299.4 425.1C298.2 424.6 297 423.9 295.8 423.2C290.6 419.9 286.3 415.7 282.2 411.1C277.1 405.3 271.7 399.7 266.3 393.9C266 394.4 265.8 394.6 265.8 394.8C263.8 404.9 261.9 415 259.9 425.2C259.5 427.3 259.1 429.5 258.7 431.6C258.5 432.5 258.2 433.5 257.7 434.3C256.5 436.4 254.1 437.3 251.9 436.2C250.6 435.6 249.2 434.6 248.4 433.4C246.4 430.6 244.5 427.8 242.9 424.7C239.2 417.7 235.6 410.7 231.7 403.1C231.3 403.7 231 404.3 230.6 404.8C222.1 416 213.6 427.2 207 439.7C206.4 440.7 205.8 441.8 204.9 442.6C202.8 444.8 199.6 445 197.4 442.8C196.3 441.8 195.4 440.5 194.8 439.1C191.1 431.3 187.7 423.4 185.8 414.9C184.8 410.2 183.5 405.6 182.3 401C182.2 400.8 182 400.6 181.8 400.3C181.1 401.3 180.5 402.2 179.8 403.1C175.8 408 171.8 412.9 167.7 417.7C164.1 422 160.3 426.1 156.6 430.3C155.8 431.2 154.9 432.2 153.8 432.9C151.7 434.3 149.3 433.4 148.8 431C148.1 428 147.3 425.1 146 422.4C145.5 421.2 145.5 419.8 145.4 418.4C144.8 408 144.2 397.7 143.5 387.1C143 387.2 142.7 387.1 142.5 387.3C135 391.7 127.4 396 119.9 400.5C116.8 402.4 113.9 404.8 110.9 406.9C109.6 407.8 108.4 408.9 107 409.7C103.8 411.5 100.6 410 99.9 406.4C99.6 404.8 99.6 403.1 99.7 401.4C100.1 392.2 101.1 383.1 102.9 374C103.3 372 103.6 370.1 103.9 368.1C104 367.6 103.9 367 103.9 366.4C99.3 367.7 94.7 368.9 90.2 370.1C85.2 371.4 80.2 372.9 75.4 375C72.8 376.1 70.1 376.8 67.5 377.7C66.9 377.9 66.3 378 65.6 378C61 378.4 58.2 375.6 58.8 371.1C59 369.4 59.4 367.8 59.9 366.2C63.8 353.3 68.6 340.6 74.4 328.4C74.6 328 74.8 327.5 75 327C74.6 327 74.4 326.9 74.2 327C68.7 329.4 62.8 330.7 56.8 331.5C52.2 332.1 47.8 333.4 43.6 335.7C41.6 336.8 39.4 337.7 37.2 338.5C36.1 338.9 34.8 339 33.7 339C31 338.8 29.6 336.6 30.3 334.1C30.7 332.9 31.2 331.7 31.8 330.6C36.9 320.3 42.5 310.4 48.5 300.6C49 299.9 49.4 299.1 50 298C48.9 297.9 48 297.9 47.2 297.8C39.6 297.5 32 296.9 24.6 295.2C23.3 294.9 22 294.5 20.7 294.1C17.4 293.1 14.1 292.2 10.6 292.1C9.59996 292.1 8.49996 291.9 7.49996 291.7C4.69996 290.9 3.39996 288.3 4.69996 285.7C5.19996 284.6 5.99996 283.5 6.79996 282.5C8.99996 280.2 11.3 277.9 13.6 275.8C20.8 269.3 27.9 262.7 34.5 255.6C35 255 35.6 254.4 36.2 253.7C35.3 253.3 34.6 252.9 33.9 252.6C25.7 248.8 17.5 245.1 9.29996 241.2C7.09996 240.2 5.09996 238.9 3.09996 237.6C2.09996 237 1.19996 236.2 0.399958 235.2C-1.30004 233 -1.20004 230 0.899958 228C2.09996 226.8 3.49996 225.9 4.99996 225.1C7.89996 223.6 10.9 222.3 13.9 220.9C23.4 216.4 33 211.8 42.5 207.3C42.8 207.2 43 207 43.3 206.8C43.1 206.6 43 206.4 42.8 206.2C33.4 199.9 23.9 193.6 14.4 187.3C12.1 185.8 9.89996 184.3 7.59996 182.8C7.09996 182.4 6.49996 182.1 5.99996 181.7C4.29996 180.3 3.39996 178.6 3.89996 176.4C4.39996 174.1 5.99996 172.8 8.19996 172.4C11.4 171.7 14.6 171.1 17.8 170.4C25 168.9 32.2 167.3 39.3 165.7C40.9 165.1 41.6 164.8 42.5 164.6Z" fill="#EA552B" stroke="black" stroke-width="2" mask="url(#path-1-inside-1)"></path><path d="M119.795 198.02L110.769 200.94L124.219 242.509L158.365 231.461L155.733 223.325L130.613 231.453L119.795 198.02Z" fill="black"></path><path d="M177.793 193.817C174.576 191.578 170.2 190.829 164.024 192.827C149.95 197.381 152.289 209.679 153.865 214.549C155.306 219.002 160.789 230.677 174.744 226.161C181.039 224.124 184.283 221.172 185.598 217.532L185.895 217.436L187.393 222.068L196.42 219.148L185.64 185.833L176.614 188.754L178.209 193.683L177.793 193.817ZM174.919 217.576C166.308 220.363 163.244 214.138 162.476 211.762C161.63 209.149 160.484 202.567 169.154 199.761C176.934 197.244 179.959 201.12 181.419 205.633C183.053 210.681 182.698 215.059 174.919 217.576Z" fill="black"></path><path d="M203.764 188.497L214.572 185L212.113 177.399L201.305 180.896L198.192 171.276L189.106 174.215L192.219 183.836L187.824 185.258L190.284 192.859L194.678 191.437L199.002 204.798C200.558 209.608 202.96 217.031 212.046 214.092C221.072 211.171 222.661 210.001 222.661 210.001L219.818 201.212C211.301 204.492 209.375 205.837 207.818 201.027L207.588 200.314L203.764 188.497Z" fill="black"></path><path d="M254.418 184.309L254.774 184.194C253.77 179.467 250.909 172.652 243.073 170.333L243.093 170.392C239.667 169.336 235.483 169.378 230.791 170.896C219.568 174.527 214.838 182.618 218.354 193.485C221.948 204.59 230.265 208.196 241.667 204.507C252.594 200.972 256.991 194.694 255.557 187.22L246.828 190.045C246.707 192.511 244.515 194.861 239.111 196.609C233.292 198.492 229.908 197.16 227.814 192.917L254.418 184.309ZM233.347 178.794C239.76 176.719 242.307 178.912 243.827 181.176L226.249 186.863C226.222 183.133 228.359 180.408 233.347 178.794Z" fill="black"></path><path d="M272.013 172.384L271.222 172.574C265.114 173.566 263.835 173.062 263.355 171.577C263.028 170.568 263.501 168.381 268.549 166.747C273.775 165.057 276.493 165.752 277.338 168.365L277.434 168.661L286.639 165.683L286.543 165.386C284.89 160.279 280.001 155.104 266.224 159.562C253.397 163.712 252.512 170.1 254.011 174.732C256.163 181.383 262.793 181.599 272.757 179.753C273.251 179.658 273.746 179.564 274.24 179.47C277.997 178.713 281.357 178.151 282.164 180.645C282.875 182.842 279.585 184.432 275.962 185.604C269.965 187.544 267.404 186.93 266.482 184.079L266.386 183.782L257.122 186.78L257.333 187.433C257.831 189.174 258.734 191.965 261.799 193.532C265.336 195.34 270.945 195.034 278.486 192.594C288.701 189.289 294.12 185.764 291.449 177.509C288.894 169.611 279.92 171.072 272.013 172.384Z" fill="black"></path><path d="M300.438 157.217L311.245 153.72L308.786 146.118L297.978 149.615L294.865 139.995L285.779 142.935L288.892 152.555L284.498 153.977L286.957 161.578L291.352 160.157L295.675 173.518C297.231 178.328 299.633 185.751 308.719 182.811C317.746 179.891 319.335 178.72 319.335 178.72L316.491 169.931C307.975 173.212 306.048 174.557 304.492 169.747L304.261 169.034L300.438 157.217Z" fill="black"></path><path d="M127.408 272.008C121.232 274.006 118.065 277.195 116.75 280.835L116.275 280.989L114.699 276.12L105.673 279.04L120.545 325.004L129.572 322.083L123.98 304.802L124.396 304.668C127.594 306.847 131.971 307.399 138.206 305.382C152.221 300.847 149.807 288.114 148.366 283.66C146.79 278.791 141.482 267.454 127.408 272.008ZM133.076 298.448C125.237 300.984 122.385 297.643 120.752 292.595C119.292 288.082 119.473 283.169 127.312 280.633C135.922 277.846 138.909 283.834 139.755 286.447C140.523 288.822 141.687 295.662 133.076 298.448Z" fill="black"></path><path d="M164.909 259.808C159.149 261.672 157.687 264.047 156.824 267.869L156.29 268.042L154.695 263.113L145.668 266.033L156.448 299.348L165.474 296.427L160.651 281.522C159.191 277.009 159.46 271.149 166.17 268.978C169.021 268.055 171.491 267.781 172.399 267.749L171.076 258.796C169.417 258.94 167.284 259.039 164.909 259.808Z" fill="black"></path><path d="M188.187 251.62C178.092 254.886 171.446 263.138 175.155 274.599C178.882 286.119 189.063 288.795 199.159 285.528C209.313 282.243 216.055 274.288 212.27 262.59C208.523 251.01 198.342 248.334 188.187 251.62ZM196.507 277.333C190.866 279.159 186.02 277.971 184.003 271.736C181.966 265.441 185.216 261.7 190.858 259.874C196.559 258.03 201.423 259.277 203.422 265.453C205.362 271.45 202.208 275.489 196.507 277.333Z" fill="black"></path><path d="M222.042 276.943C223.963 282.882 222.451 286.52 216.532 288.501L212.434 289.827L215.24 298.497L219.337 297.171C234.599 292.233 233.771 283.185 231.005 274.437L220.706 242.607L211.858 245.47L222.042 276.943ZM219.918 240.172L217.344 232.214L208.495 235.077L211.07 243.035L219.918 240.172Z" fill="black"></path><path d="M263.972 248.484L264.328 248.369C263.324 243.643 260.463 236.828 252.627 234.508L252.647 234.568C249.221 233.511 245.036 233.553 240.345 235.071C229.121 238.703 224.392 246.793 227.908 257.661C231.501 268.766 239.819 272.372 251.221 268.683C262.147 265.147 266.545 258.87 265.111 251.396L256.381 254.221C256.261 256.687 254.069 259.036 248.665 260.785C242.845 262.668 239.462 261.335 237.368 257.093L263.972 248.484ZM242.901 242.969C249.314 240.894 251.861 243.088 253.38 245.351L235.803 251.039C235.776 247.308 237.912 244.583 242.901 242.969Z" fill="black"></path><path d="M293.658 241.175C293.755 243.702 292.349 246.453 286.648 248.298C280.769 250.2 276.816 248.527 274.895 242.589C273.069 236.947 275.216 233.038 281.095 231.136C286.617 229.349 289.43 230.538 291.009 232.783L299.857 229.92C296.529 222.271 288.023 219.907 278.462 223C268.664 226.171 262.628 234.684 266.106 245.432C269.68 256.478 279.463 259.545 289.261 256.374C298.822 253.281 304.447 246.54 302.566 238.293L293.658 241.175Z" fill="black"></path><path d="M312.427 220.604L323.235 217.107L320.776 209.506L309.968 213.003L306.855 203.383L297.769 206.323L300.882 215.943L296.487 217.365L298.947 224.966L303.341 223.544L307.665 236.905C309.221 241.716 311.623 249.139 320.709 246.199C329.735 243.278 331.324 242.108 331.324 242.108L328.481 233.319C319.964 236.599 318.038 237.944 316.481 233.134L316.251 232.422L312.427 220.604Z" fill="black"></path><path d="M344.083 216.331L343.291 216.522C337.184 217.514 335.905 217.009 335.425 215.525C335.098 214.515 335.571 212.328 340.619 210.695C345.845 209.004 348.562 209.699 349.408 212.312L349.504 212.609L358.709 209.631L358.612 209.334C356.96 204.227 352.071 199.052 338.294 203.509C325.467 207.66 324.582 214.047 326.08 218.679C328.232 225.33 334.863 225.547 344.827 223.7C345.321 223.606 345.816 223.511 346.31 223.417C350.067 222.661 353.427 222.098 354.234 224.592C354.945 226.79 351.655 228.379 348.032 229.551C342.034 231.492 339.474 230.877 338.551 228.027L338.455 227.73L329.191 230.727L329.403 231.381C329.901 233.122 330.804 235.913 333.869 237.48C337.406 239.287 343.014 238.981 350.556 236.541C360.77 233.236 366.19 229.711 363.519 221.457C360.964 213.559 351.989 215.019 344.083 216.331Z" fill="black"></path></g><defs><clipPath id="clip0"><rect width="441.5" height="444.2" fill="white"></rect></clipPath></defs></svg>