<svg width="17" height="17" viewBox="0 0 17 17" fill="none" xmlns="http://www.w3.org/2000/svg">
<g clip-path="url(#clip0_973_5325)">
<path d="M9.22876 7.6839C6.20144 3.44645 9.22876 7.6839 6.20144 3.44645C4.76212 1.43177 2.85651 0.101502 1.52622 1.43178" stroke="#281E1E" stroke-width="1.13333"/>
<path d="M7.82062 9.09107C3.58316 6.06374 7.82062 9.09107 3.58316 6.06374C1.56849 4.62443 0.238221 2.71881 1.5685 1.38853" stroke="#281E1E" stroke-width="1.13333"/>
<path d="M2.12917 5.0862C2.66812 5.62515 7.62543 8.95606 8.58951 8.95606C10.4074 7.81988 6.52646 4.09228 5.39722 2.6756C3.98567 0.904751 2.47575 0.481286 1.1968 1.76023C0.281431 2.6756 1.46314 4.42017 2.12917 5.0862Z" fill="#281E1E"/>
<path d="M9.3161 7.77222C13.5536 10.7995 9.3161 7.77222 13.5536 10.7995C15.5682 12.2389 16.8985 14.1445 15.5682 15.4748" stroke="#281E1E" stroke-width="1.13333"/>
<path d="M7.90698 9.17938C10.9343 13.4168 7.90698 9.17938 10.9343 13.4168C12.3736 15.4315 14.2792 16.7618 15.6095 15.4315" stroke="#281E1E" stroke-width="1.13333"/>
<path d="M11.9128 14.8708C11.3739 14.3319 8.04297 9.37457 8.04297 8.41049C9.17915 6.5926 12.9067 10.4735 14.3234 11.6028C16.0943 13.0143 16.5177 14.5243 15.2388 15.8032C14.3234 16.7186 12.5789 15.5369 11.9128 14.8708Z" fill="#281E1E"/>
<path d="M7.6839 7.77221C3.44645 10.7995 7.6839 7.77221 3.44645 10.7995C1.43177 12.2389 0.101502 14.1445 1.43178 15.4748" stroke="#281E1E" stroke-width="1.13333"/>
<path d="M9.09302 9.17938C6.0657 13.4168 9.09302 9.17938 6.0657 13.4168C4.62638 15.4315 2.72076 16.7618 1.39048 15.4315" stroke="#281E1E" stroke-width="1.13333"/>
<path d="M5.08717 14.8708C5.62613 14.3319 8.95703 9.37457 8.95703 8.41049C7.82085 6.5926 4.09326 10.4735 2.67658 11.6028C0.905727 13.0143 0.482262 14.5243 1.76121 15.8032C2.67658 16.7186 4.42115 15.5369 5.08717 14.8708Z" fill="#281E1E"/>
<path d="M7.77124 7.6839C10.7986 3.44645 7.77124 7.6839 10.7986 3.44645C12.2379 1.43177 14.1435 0.101502 15.4738 1.43178" stroke="#281E1E" stroke-width="1.13333"/>
<path d="M9.18035 9.09107C13.4178 6.06374 9.18035 9.09107 13.4178 6.06374C15.4325 4.62443 16.7628 2.71881 15.4325 1.38853" stroke="#281E1E" stroke-width="1.13333"/>
<path d="M14.8708 5.0862C14.3319 5.62515 9.37457 8.95606 8.41049 8.95606C6.5926 7.81988 10.4735 4.09228 11.6028 2.6756C13.0143 0.904751 14.5243 0.481286 15.8032 1.76023C16.7186 2.6756 15.5369 4.42017 14.8708 5.0862Z" fill="#281E1E"/>
</g>
<defs>
<clipPath id="clip0_973_5325">
<rect width="17" height="17" fill="white"/>
</clipPath>
</defs>
</svg>
