<svg viewBox="0 0 404 291" fill="none" xmlns="http://www.w3.org/2000/svg">
<path fill-rule="evenodd" clip-rule="evenodd" d="M240.791 288.226C243.592 292.565 246.817 286.042 247.164 285.037C248.63 280.755 248.932 275.429 246.044 270.954C238.728 259.598 231.408 248.242 224.093 236.884C221.292 232.545 218.067 239.068 217.72 240.075C216.253 244.358 215.956 249.684 218.84 254.159C226.155 265.514 233.475 276.87 240.791 288.226Z" fill="white"/>
<path fill-rule="evenodd" clip-rule="evenodd" d="M386.786 213.657C377.134 202.102 364.864 194.23 350.334 190.27C344.109 188.577 334.91 211.775 336.838 212.299C351.361 216.258 363.632 224.127 373.287 235.685C374.291 236.887 391.122 218.845 386.786 213.657Z" fill="white"/>
<path fill-rule="evenodd" clip-rule="evenodd" d="M108.649 237.067C98.5394 248.226 92.4455 261.461 90.5436 276.388C89.7326 282.783 114.005 288.657 114.256 286.677C116.158 271.756 122.249 258.52 132.359 247.358C133.411 246.198 113.186 232.055 108.649 237.067Z" fill="white"/>
<path fill-rule="evenodd" clip-rule="evenodd" d="M325.347 134.088C345.412 112.977 368.538 96.0082 394.708 83.0079C400.294 80.236 392.141 55.9074 390.354 56.7948C363.648 70.0595 340.054 87.5501 319.608 109.064C315.251 113.648 323.721 135.797 325.347 134.088Z" fill="white"/>
<path fill-rule="evenodd" clip-rule="evenodd" d="M246.755 72.6105C255.158 56.9881 271.984 44.1046 288.611 31.5519C291.587 29.3074 289.876 23.4923 289.308 21.0239C289.122 20.2198 287.357 13.7846 285.051 15.5263C267.579 28.7149 250.846 42.0422 242.038 58.4196C240.154 61.9189 241.248 66.6315 242.463 70.0042C242.895 71.2141 244.935 75.9883 246.755 72.6105Z" fill="white"/>
<path fill-rule="evenodd" clip-rule="evenodd" d="M136.332 7.22462C135.395 9.57344 132.5 16.0865 134.421 18.7831C143.029 30.8614 150.452 43.4463 156.691 56.5265C157.89 59.0392 161.232 51.5675 161.407 51.1281C162.555 48.2612 164.885 42.8559 163.315 39.5688C157.077 26.4866 149.653 13.9036 141.048 1.82616C139.395 -0.490515 136.613 6.52077 136.332 7.22462Z" fill="white"/>
<path fill-rule="evenodd" clip-rule="evenodd" d="M76.434 73.1844C65.004 62.6818 51.4515 56.1611 36.0736 53.7668C30.1516 52.8424 24.0728 76.7322 26.402 77.0942C41.7838 79.4872 55.3352 86.0104 66.768 96.5142C67.738 97.4034 81.3682 77.7172 76.434 73.1844Z" fill="white"/>
<path fill-rule="evenodd" clip-rule="evenodd" d="M49.2976 162.572C33.504 166.136 18.2429 171.15 3.39655 177.66C-2.80135 180.382 2.5286 205.223 3.5832 204.762C18.4296 198.249 33.6877 193.235 49.4812 189.674C55.0297 188.421 51.9439 161.975 49.2976 162.572Z" fill="white"/>
</svg>
